<?xml version="1.0" encoding="utf-8"?>
<!-- Svg Vector Icons : http://www.onlinewebfonts.com/icon -->
<!DOCTYPE svg PUBLIC "-//W3C//DTD SVG 1.1//EN" "http://www.w3.org/Graphics/SVG/1.1/DTD/svg11.dtd">
<svg version="1.1" xmlns="http://www.w3.org/2000/svg" xmlns:xlink="http://www.w3.org/1999/xlink" x="0px" y="0px" viewBox="0 0 1000 1000" enable-background="new 0 0 1000 1000" xml:space="preserve">
<metadata> Svg Vector Icons : http://www.onlinewebfonts.com/icon </metadata>
<g><path d="M254.3,476.8h385.3c6.9,0,12.6,5.7,12.6,12.6v6.3c0,6.9-5.7,12.6-12.6,12.6H254.3c-6.9,0-12.6-5.7-12.6-12.6v-6.3C241.7,482.5,247.3,476.8,254.3,476.8z"/><path d="M254.3,344.6h397.9c6.9,0,12.6,5.7,12.6,12.6v6.3c0,6.9-5.7,12.6-12.6,12.6H254.3c-6.9,0-12.6-5.7-12.6-12.6v-6.3C241.7,350.3,247.3,344.6,254.3,344.6z"/><path d="M592.3,879.1c-15.7,0-69.3,0.6-84.4,0.6h-27.1h-60.4l0,0h-18.9c-44.1,0-90.7-0.6-134.7-5c-49.1-5-115.2-20.8-152.4-64.2c-38.4-47.2-47.8-90-51-147.9c-1.9-37.8-3.1-93.8-3.1-166.2V446c0-60.4,1.3-108.3,3.1-141.6c3.1-58.5,12.6-100.7,51.6-147.3c36.5-44.1,103.2-59.2,152.4-64.2c57.3-6.3,122.1-6.3,185.7-6.3h6.3c65.5,0,127.2,0,183.8,6.3c49.1,5,115.2,20.8,152.4,64.2c37.8,44.7,42.8,85.6,50.4,137.9l1.9,12c3.1,23.3,4.4,100.1,4.4,170c17.6,5,34.6-6.9,50.4,1.3c0.6-78.1-0.6-148.6-4.4-178.2l-1.9-11.3c-7.6-55.4-14.5-107.7-61.1-163.1c-38.4-45.3-100.7-73-185.7-82.5c-59.8-6.3-125.3-6.3-189.5-6.3h-6.3c-64.8,0-131.6,0-190.8,6.3c-86.2,8.2-148.6,35.9-187,81.8c-47.8,56.7-59.8,110.2-63,176.9c-1.9,34-3.1,82.5-3.1,144.2v50.4c0,73,1.3,129.7,3.1,168.7c3.8,67.4,15.7,120.2,63,176.9c38.4,45.3,100.7,73,185.7,82.5c46,5,95.1,5.7,137.9,5.7l0,0h89.4H508c29.6,0,59.8,0,90.7-1.9C582.3,913.7,604.9,897.4,592.3,879.1z"/><path d="M783.7,548.6c-96.9-11.3-183.8,58.5-195.2,154.9c-11.3,97,58.5,183.8,154.9,195.2c97,11.3,183.8-58.5,195.2-154.9C949.9,646.8,880.7,559.9,783.7,548.6z M901.4,739.3c-8.8,76.2-77.4,130.3-153.6,122.1c-76.2-8.8-130.3-77.4-122.1-153.6c8.2-76.2,77.4-130.3,153.6-122.1C855.5,594.5,910.3,663.2,901.4,739.3z"/><path d="M884.4,832.5l99.5,98.8l-25.2,28.3l-99.5-98.8L884.4,832.5z"/><path d="M884.4,832.5c7.6,6.9,8.2,18.9,1.3,26.4c-6.9,7.6-18.9,8.2-26.4,1.3c-7.6-6.9-8.2-18.9-1.3-26.4C864.3,826.2,876.3,825.6,884.4,832.5z"/><path d="M983.9,930.7c7.6,6.9,8.2,18.9,1.3,26.4c-6.9,7.6-18.9,8.2-26.4,1.3c-7.6-6.9-8.2-18.9-1.3-26.4C964.4,924.4,976.4,923.8,983.9,930.7z"/><path d="M617.5,903.6c0,13.8-9.4,24.6-23.9,24.6c-13.9,0-28.3-10.1-28.3-23.9c0-13.8,13.2-25.2,27.1-25.2S617.5,889.8,617.5,903.6z"/><path d="M901.4,474.3c0,13.9-9.4,24.6-23.9,24.6c-13.8,0-27.1-10.1-27.1-23.9s12-25.2,25.8-25.2C890.7,449.7,901.4,460.4,901.4,474.3z"/><path d="M523.7,618.5c0,8.8-6.9,15.7-15.7,15.7H257.4c-8.8,0-15.7-6.9-15.7-15.7l0,0c0-8.8,6.9-15.7,15.7-15.7H508C516.8,602.7,523.7,609.6,523.7,618.5L523.7,618.5z"/></g>
</svg>